<svg xmlns="http://www.w3.org/2000/svg" height="512" width="512"><rect id="backgroundrect" width="100%" height="100%" x="0" y="0" fill="none" stroke="none"/><g class="currentLayer" style=""><title>Layer 1</title><path d="m493.2334 273.94922-21.2334-18.36401v-48.96143a24 24 0 1 0 -16 0v35.12353l-32-27.67553v-49.54178l36.11621-21.66968a8.00153 8.00153 0 0 0 3.88379-6.86032v-25.37622a24 24 0 1 0 -16 0v20.84692l-24 14.39942v-75.24634a24 24 0 1 0 -16 0v129.61011l-24-20.75684v-52.85327a24 24 0 1 0 -16 0v39.01538l-32-27.67554v-47.29662l15.24561-20.32763a24.03747 24.03747 0 1 0 -12.11622-10.51221l-17.52978 23.373a8.00115 8.00115 0 0 0 -1.59961 4.79984v36.12573l-16-13.83789v-39.66406a24 24 0 1 0 -16 0v25.82642l-90.7666-78.501a7.99838 7.99838 0 0 0 -5.2334-1.9492h-152a24.0275 24.0275 0 0 0 -24 24v432a24.0275 24.0275 0 0 0 24 24h432a24.0275 24.0275 0 0 0 24-24v-192a7.99981 7.99981 0 0 0 -2.7666-6.05078zm-29.2334-97.94922a8 8 0 1 1 -8 8 8.00917 8.00917 0 0 1 8-8zm-8-96a8 8 0 1 1 -8 8 8.00917 8.00917 0 0 1 8-8zm-40-40a8 8 0 1 1 -8 8 8.00917 8.00917 0 0 1 8-8zm-40 56a8 8 0 1 1 -8 8 8.00917 8.00917 0 0 1 8-8zm-16-56a8 8 0 1 1 -8 8 8.00917 8.00917 0 0 1 8-8zm-64 0a8 8 0 1 1 -8 8 8.00917 8.00917 0 0 1 8-8zm-256-8h149.02051l37 32h-194.02051v-24a8.00917 8.00917 0 0 1 8-8zm440 440a8.00917 8.00917 0 0 1 -8 8h-432a8.00917 8.00917 0 0 1 -8-8v-392h212.52051l235.47949 203.6582z" id="svg_1" class="selected" fill="#41e841" fill-opacity="1"/><circle cx="48" cy="48" r="8" id="svg_2" class="selected" fill="#41e841" fill-opacity="1"/><circle cx="72" cy="48" r="8" id="svg_3" class="selected" fill="#41e841" fill-opacity="1"/><circle cx="96" cy="48" r="8" id="svg_4" class="selected" fill="#41e841" fill-opacity="1"/><path d="m288 376a8.00229 8.00229 0 0 0 3.2002 6.40039l32 24 9.5996-12.80078-23.4668-17.59961 23.46679-17.59961-9.5996-12.80078-32 24a8.00229 8.00229 0 0 0 -3.20019 6.40039z" id="svg_5" class="selected" fill="#41e841" fill-opacity="1"/><path d="m412.7998 406.40039 32-24a8.00048 8.00048 0 0 0 0-12.80078l-32-24-9.5996 12.80078 23.4668 17.59961-23.4668 17.59961z" id="svg_6" class="selected" fill="#41e841" fill-opacity="1"/><path d="m336.73245099999997,428.60906800000004 h47.993517000000004 v6.704 h-47.993517000000004 z" id="svg_7" class="selected" fill="#41e841" fill-opacity="1"/><path d="m56 104h16v16h-16z" id="svg_8" class="selected" fill="#41e841" fill-opacity="1"/><path d="m88 104h40v16h-40z" id="svg_9" class="selected" fill="#41e841" fill-opacity="1"/><path d="m56 136h16v16h-16z" id="svg_10" class="selected" fill="#41e841" fill-opacity="1"/><path d="m104 136h40v16h-40z" id="svg_11" class="selected" fill="#41e841" fill-opacity="1"/><path d="m160 136h16v16h-16z" id="svg_12" class="selected" fill="#41e841" fill-opacity="1"/><path d="m128 168h56v16h-56z" id="svg_13" class="selected" fill="#41e841" fill-opacity="1"/><path d="m56 280h16v16h-16z" id="svg_14" class="selected" fill="#41e841" fill-opacity="1"/><path d="m88 280h40v16h-40z" id="svg_15" class="selected" fill="#41e841" fill-opacity="1"/><path d="m56 312h16v16h-16z" id="svg_16" class="selected" fill="#41e841" fill-opacity="1"/><path d="m104 312h96v16h-96z" id="svg_17" class="selected" fill="#41e841" fill-opacity="1"/><path d="m216 312h16v16h-16z" id="svg_18" class="selected" fill="#41e841" fill-opacity="1"/><path d="m176 344h80v16h-80z" id="svg_19" class="selected" fill="#41e841" fill-opacity="1"/><path d="m128 344h32v16h-32z" id="svg_20" class="selected" fill="#41e841" fill-opacity="1"/><path d="m144 232h104v16h-104z" id="svg_21" class="selected" fill="#41e841" fill-opacity="1"/><path d="m128 200h72v16h-72z" id="svg_22" class="selected" fill="#41e841" fill-opacity="1"/><path d="m96 200h16v16h-16z" id="svg_23" class="selected" fill="#41e841" fill-opacity="1"/><path d="m264 232h56v16h-56z" id="svg_24" class="selected" fill="#41e841" fill-opacity="1"/><path d="m120 376h80v16h-80z" id="svg_25" class="selected" fill="#41e841" fill-opacity="1"/><path d="m96 408h48v16h-48z" id="svg_26" class="selected" fill="#41e841" fill-opacity="1"/><path d="m160 408h24v16h-24z" id="svg_27" class="selected" fill="#41e841" fill-opacity="1"/><path d="m152 440h80v16h-80z" id="svg_28" class="selected" fill="#41e841" fill-opacity="1"/></g></svg>