<svg xmlns="http://www.w3.org/2000/svg" enable-background="new 0 0 128 128" height="89.51351359710804" width="125.83783786570268" style=""><rect id="backgroundrect" width="100%" height="100%" x="0" y="0" fill="none" stroke="none" class="" style=""/><g class="currentLayer" style=""><title>Layer 1</title><path d="m107.26399763273494,2.15541955232311 h-83.23481469154359 c-3.7269320011138922,0 -6.729182779788971,3.385933041572571 -6.729182779788971,7.490094304084778 v56.227009296417236 c0,4.104161262512207 3.002250778675079,7.490094304084778 6.729182779788971,7.490094304084778 h30.643663120269782 l-1.0352588891983032,11.69685959815979 h-6.936234557628632 c-1.0352588891983032,0 -1.863466000556946,0.8208322525024416 -1.863466000556946,1.8468725681304932 s0.8282071113586427,1.8468725681304932 1.863466000556946,1.8468725681304932 h37.994001233577734 c1.0352588891983032,0 1.863466000556946,-0.8208322525024416 1.863466000556946,-1.8468725681304932 s-0.8282071113586427,-1.8468725681304932 -1.863466000556946,-1.8468725681304932 h-6.936234557628632 l-1.0352588891983032,-11.69685959815979 h30.643663120269782 c3.7269320011138922,0 6.729182779788971,-3.385933041572571 6.729182779788971,-7.490094304084778 v-56.32961332798004 c0,-4.104161262512207 -3.1057766675949097,-7.387490272521973 -6.8327086687088014,-7.387490272521973 zm-83.23481469154359,3.591141104698181 h83.23481469154359 c1.7599401116371158,0 3.1057766675949097,1.7442685365676884 3.1057766675949097,3.8989531993865967 v0.10260403156280519 h-89.44636802673341 v-0.10260403156280519 c0,-2.257288694381714 1.3458365559577943,-3.8989531993865967 3.1057766675949097,-3.8989531993865967 zm-3.1057766675949097,7.592698335647583 h89.54989391565323 v45.76139807701111 h-89.54989391565323 zm53.10878101587295,71.61761403083801 h-16.77119400501251 l1.0352588891983032,-11.69685959815979 h14.700676226615904 zm33.231810343265536,-15.288000702857971 h-32.61065500974655 h-18.013504672050473 h-32.61065500974655 c-1.7599401116371158,0 -3.1057766675949097,-1.7442685365676884 -3.1057766675949097,-3.8989531993865967 v-3.2833290100097656 h89.54989391565323 v3.385933041572571 c0,2.0520806312561035 -1.4493624448776243,3.7963491678237915 -3.20930255651474,3.7963491678237915 z" id="svg_1" class="selected" fill="#1aeb1a" fill-opacity="1"/><g id="svg_2" class="selected" fill="#41e841" fill-opacity="1"><path d="m86.7,35.655419492721556 l-11.7,-5.8 c-0.9,-0.4 -1.9,-0.1 -2.3,0.8 s-0.1,1.9 0.8,2.3 l8.5,4.3 l-8.6,4.2 c-0.9,0.4 -1.2,1.5 -0.8,2.3 c0.3000000000000003,0.6000000000000006 0.9,1 1.6,1 c0.3000000000000003,0 0.5,-0.1 0.8,-0.2 l11.7,-5.8 c0.6000000000000006,-0.3000000000000003 1,-0.9 1,-1.6 s-0.4,-1.2 -1,-1.5 z" id="svg_3" fill="#41e841" fill-opacity="1"/><path d="m55.4,30.655419492721556 c-0.4,-0.9 -1.5,-1.2 -2.3,-0.8 l-11.7,5.8 c-0.6000000000000006,0.3000000000000003 -1,0.9 -1,1.6 s0.4,1.3 1,1.6 l11.6,5.8 c0.3000000000000003,0.1 0.5,0.2 0.8,0.2 c0.6000000000000006,0 1.3,-0.4 1.6,-1 c0.4,-0.9 0.1,-1.9 -0.8,-2.3 l-8.6,-4.3 l8.6,-4.2 c0.9,-0.5 1.2,-1.5 0.8,-2.4 z" id="svg_4" fill="#41e841" fill-opacity="1"/><path d="m69,25.655419492721556 c-0.9,-0.4 -1.9,0 -2.3,0.9 l-8.7,20.6 c-0.4,0.9 0,1.9 0.9,2.3 c0.2,0.1 0.5,0.1 0.7000000000000006,0.1 c0.7000000000000006,0 1.3,-0.4 1.6,-1.1 l8.8,-20.5 c0.3000000000000003,-0.9 -0.1,-2 -1,-2.3 z" id="svg_5" fill="#41e841" fill-opacity="1"/></g></g></svg>