<svg xmlns="http://www.w3.org/2000/svg" enable-background="new 0 0 512 512" height="512" width="512"><rect id="backgroundrect" width="100%" height="100%" x="0" y="0" fill="none" stroke="none"/><g class="currentLayer" style=""><title>Layer 1</title><g id="svg_1" class="selected" fill="#41e841" fill-opacity="1"><g id="svg_2" fill="#41e841" fill-opacity="1"><path d="m512 59.021c0-15.275-12.428-27.703-27.703-27.703h-456.594c-15.275 0-27.703 12.428-27.703 27.703v298.481c0 4.143 3.357 7.5 7.5 7.5s7.5-3.357 7.5-7.5v-228.35h482v20.21c0 4.143 3.357 7.5 7.5 7.5s7.5-3.357 7.5-7.5zm-497 55.132v-55.132c0-7.005 5.698-12.703 12.703-12.703h456.594c7.005 0 12.703 5.698 12.703 12.703v55.132z" id="svg_3" fill="#41e841" fill-opacity="1"/><path d="m438.839 68.112c-6.695 0-12.122 5.427-12.122 12.122s5.427 12.122 12.122 12.122 12.122-5.427 12.122-12.122-5.427-12.122-12.122-12.122z" id="svg_4" fill="#41e841" fill-opacity="1"/><path d="m397.423 68.112c-6.695 0-12.122 5.427-12.122 12.122s5.427 12.122 12.122 12.122 12.122-5.427 12.122-12.122-5.427-12.122-12.122-12.122z" id="svg_5" fill="#41e841" fill-opacity="1"/><circle cx="356.0060119628906" cy="80.23400115966797" r="12.121999740600586" id="svg_6" fill="#41e841" fill-opacity="1"/><path d="m504.5 176.863c-4.143 0-7.5 3.357-7.5 7.5v268.62c0 7.002-5.697 12.699-12.7 12.699h-456.6c-7.003 0-12.7-5.697-12.7-12.699v-60.48c0-4.143-3.357-7.5-7.5-7.5s-7.5 3.357-7.5 7.5v60.48c0 15.273 12.426 27.699 27.7 27.699h456.6c15.274 0 27.7-12.426 27.7-27.699v-268.62c0-4.143-3.357-7.5-7.5-7.5z" id="svg_7" fill="#41e841" fill-opacity="1"/><path d="m86.87 408.533v32.33c0 4.143 3.357 7.5 7.5 7.5h323.26c4.143 0 7.5-3.357 7.5-7.5v-32.33c0-4.143-3.357-7.5-7.5-7.5h-26.62c-4.143 0-7.5 3.357-7.5 7.5s3.357 7.5 7.5 7.5h19.12v17.33h-308.26v-17.33h254.14c4.143 0 7.5-3.357 7.5-7.5s-3.357-7.5-7.5-7.5h-261.64c-4.142 0-7.5 3.357-7.5 7.5z" id="svg_8" fill="#41e841" fill-opacity="1"/><path d="m279.801 290.708 16.163 27.994c1.688 2.924 5.123 4.355 8.389 3.507l28.336-7.394c4.778 3.544 9.932 6.521 15.39 8.891l7.764 28.23c.896 3.256 3.855 5.512 7.231 5.512h32.325c3.376 0 6.336-2.256 7.231-5.512l7.763-28.23c5.458-2.369 10.611-5.347 15.39-8.891l28.336 7.394c3.267.857 6.701-.582 8.389-3.507l16.163-27.994c1.688-2.924 1.215-6.615-1.157-9.019l-20.577-20.85c.339-2.968.511-5.94.511-8.878s-.172-5.91-.511-8.877l20.577-20.85c2.372-2.403 2.846-6.095 1.157-9.019l-16.163-27.995c-1.688-2.924-5.124-4.355-8.389-3.507l-28.336 7.394c-4.778-3.543-9.931-6.521-15.39-8.89l-7.763-28.23c-.896-3.256-3.855-5.512-7.231-5.512h-32.325c-3.376 0-6.336 2.256-7.231 5.512l-7.764 28.23c-5.459 2.369-10.611 5.347-15.39 8.89l-28.336-7.394c-3.265-.854-6.7.583-8.389 3.507l-16.163 27.995c-1.688 2.924-1.215 6.615 1.157 9.019l20.577 20.85c-.339 2.967-.511 5.939-.511 8.877s.172 5.91.511 8.878l-20.577 20.85c-2.372 2.403-2.846 6.095-1.157 9.019zm35.009-21.964c1.685-1.707 2.451-4.115 2.063-6.481-.563-3.436-.849-6.901-.849-10.301 0-3.398.285-6.864.849-10.3.388-2.366-.379-4.774-2.063-6.481l-19.16-19.414 10.446-18.095 26.391 6.886c2.32.605 4.798.062 6.655-1.462 5.348-4.395 11.346-7.859 17.829-10.3 2.246-.846 3.952-2.716 4.589-5.031l7.229-26.288h20.894l7.229 26.288c.637 2.314 2.343 4.185 4.589 5.031 6.483 2.44 12.481 5.905 17.829 10.3 1.856 1.525 4.33 2.068 6.655 1.462l26.391-6.886 10.446 18.095-19.16 19.414c-1.685 1.707-2.451 4.115-2.063 6.481.563 3.436.849 6.901.849 10.3s-.285 6.865-.849 10.301c-.388 2.366.379 4.774 2.063 6.481l19.16 19.414-10.446 18.094-26.391-6.886c-2.32-.605-4.798-.062-6.655 1.462-5.349 4.396-11.348 7.861-17.829 10.301-2.246.846-3.952 2.717-4.589 5.031l-7.229 26.288h-20.894l-7.229-26.288c-.637-2.315-2.343-4.186-4.589-5.031-6.481-2.439-12.48-5.905-17.829-10.301-1.857-1.525-4.331-2.068-6.655-1.462l-26.391 6.886-10.446-18.094z" id="svg_9" fill="#41e841" fill-opacity="1"/><path d="m379.235 275.625c13.048 0 23.663-10.615 23.663-23.663 0-13.047-10.615-23.662-23.663-23.662-13.047 0-23.662 10.615-23.662 23.662s10.615 23.663 23.662 23.663zm0-32.326c4.777 0 8.663 3.886 8.663 8.662 0 4.777-3.886 8.663-8.663 8.663-4.776 0-8.662-3.886-8.662-8.663 0-4.776 3.886-8.662 8.662-8.662z" id="svg_10" fill="#41e841" fill-opacity="1"/><path d="m120.639 178.801h-28.285c-4.143 0-7.5 3.357-7.5 7.5s3.357 7.5 7.5 7.5h28.285c4.143 0 7.5-3.357 7.5-7.5s-3.358-7.5-7.5-7.5z" id="svg_11" fill="#41e841" fill-opacity="1"/><path d="m253.979 178.801h-101.015c-4.143 0-7.5 3.357-7.5 7.5s3.357 7.5 7.5 7.5h101.016c4.143 0 7.5-3.357 7.5-7.5s-3.358-7.5-7.501-7.5z" id="svg_12" fill="#41e841" fill-opacity="1"/><path d="m102.026 224.284c0 4.143 3.357 7.5 7.5 7.5h84.854c4.143 0 7.5-3.357 7.5-7.5s-3.357-7.5-7.5-7.5h-84.854c-4.142 0-7.5 3.357-7.5 7.5z" id="svg_13" fill="#41e841" fill-opacity="1"/><path d="m39.825 231.784h37.376c4.143 0 7.5-3.357 7.5-7.5s-3.357-7.5-7.5-7.5h-37.376c-4.143 0-7.5 3.357-7.5 7.5s3.358 7.5 7.5 7.5z" id="svg_14" fill="#41e841" fill-opacity="1"/><path d="m253.979 231.784c4.143 0 7.5-3.357 7.5-7.5s-3.357-7.5-7.5-7.5h-27.274c-4.143 0-7.5 3.357-7.5 7.5s3.357 7.5 7.5 7.5z" id="svg_15" fill="#41e841" fill-opacity="1"/><path d="m174.177 254.765h-64.65c-4.143 0-7.5 3.357-7.5 7.5s3.357 7.5 7.5 7.5h64.65c4.143 0 7.5-3.357 7.5-7.5s-3.358-7.5-7.5-7.5z" id="svg_16" fill="#41e841" fill-opacity="1"/><path d="m39.825 269.765h37.376c4.143 0 7.5-3.357 7.5-7.5s-3.357-7.5-7.5-7.5h-37.376c-4.143 0-7.5 3.357-7.5 7.5s3.358 7.5 7.5 7.5z" id="svg_17" fill="#41e841" fill-opacity="1"/><path d="m199.002 262.265c0 4.143 3.357 7.5 7.5 7.5h47.478c4.143 0 7.5-3.357 7.5-7.5s-3.357-7.5-7.5-7.5h-47.478c-4.143 0-7.5 3.358-7.5 7.5z" id="svg_18" fill="#41e841" fill-opacity="1"/><path d="m109.526 345.73h44.447c4.143 0 7.5-3.357 7.5-7.5s-3.357-7.5-7.5-7.5h-44.447c-4.143 0-7.5 3.357-7.5 7.5s3.358 7.5 7.5 7.5z" id="svg_19" fill="#41e841" fill-opacity="1"/><path d="m39.825 345.73h37.376c4.143 0 7.5-3.357 7.5-7.5s-3.357-7.5-7.5-7.5h-37.376c-4.143 0-7.5 3.357-7.5 7.5s3.358 7.5 7.5 7.5z" id="svg_20" fill="#41e841" fill-opacity="1"/><path d="m109.526 307.748h44.447c4.143 0 7.5-3.357 7.5-7.5s-3.357-7.5-7.5-7.5h-44.447c-4.143 0-7.5 3.357-7.5 7.5s3.358 7.5 7.5 7.5z" id="svg_21" fill="#41e841" fill-opacity="1"/><path d="m39.825 307.748h37.376c4.143 0 7.5-3.357 7.5-7.5s-3.357-7.5-7.5-7.5h-37.376c-4.143 0-7.5 3.357-7.5 7.5s3.358 7.5 7.5 7.5z" id="svg_22" fill="#41e841" fill-opacity="1"/><path d="m178.799 300.248c0 4.143 3.357 7.5 7.5 7.5h67.681c4.143 0 7.5-3.357 7.5-7.5s-3.357-7.5-7.5-7.5h-67.681c-4.143 0-7.5 3.357-7.5 7.5z" id="svg_23" fill="#41e841" fill-opacity="1"/><path d="m65.885 149.291c-2.588-3.233-7.307-3.76-10.542-1.171l-20.203 16.162c-1.778 1.423-2.814 3.578-2.814 5.856s1.035 4.434 2.814 5.856l20.203 16.163c1.384 1.106 3.037 1.644 4.681 1.644 2.2 0 4.38-.963 5.861-2.814 2.588-3.234 2.063-7.954-1.171-10.542l-12.883-10.307 12.883-10.306c3.234-2.587 3.759-7.306 1.171-10.541z" id="svg_24" fill="#41e841" fill-opacity="1"/><path d="m109.526 383.711h111.118c4.143 0 7.5-3.357 7.5-7.5s-3.357-7.5-7.5-7.5h-111.118c-4.143 0-7.5 3.357-7.5 7.5s3.358 7.5 7.5 7.5z" id="svg_25" fill="#41e841" fill-opacity="1"/><path d="m39.825 383.711h37.376c4.143 0 7.5-3.357 7.5-7.5s-3.357-7.5-7.5-7.5h-37.376c-4.143 0-7.5 3.357-7.5 7.5s3.358 7.5 7.5 7.5z" id="svg_26" fill="#41e841" fill-opacity="1"/><path d="m248.123 339.201c-2.588 3.234-2.063 7.954 1.171 10.542l12.883 10.307-12.883 10.306c-3.234 2.588-3.759 7.307-1.171 10.542 1.481 1.852 3.661 2.814 5.861 2.814 1.643 0 3.298-.537 4.681-1.644l20.203-16.162c1.778-1.423 2.814-3.578 2.814-5.856s-1.035-4.434-2.814-5.856l-20.203-16.163c-3.236-2.59-7.955-2.065-10.542 1.17z" id="svg_27" fill="#41e841" fill-opacity="1"/></g></g></g></svg>